<svg width="100" height="100" viewBox="0 0 100 100" fill="none" xmlns="http://www.w3.org/2000/svg">
<circle cx="50" cy="50" r="50" fill="white"/>
<g filter="url(#filter0_d_11_55)">
<path d="M76.4 67.24C76.92 67.24 77.32 67.48 77.6 67.96C77.92 68.44 78.08 69.1 78.08 69.94C78.08 71.5 77.7 72.74 76.94 73.66C72.98 78.5 68.76 80.92 64.28 80.92C60.4 80.92 57.3 79.42 54.98 76.42C52.66 73.42 51.5 69.12 51.5 63.52C51.5 62.16 51.56 60.8 51.68 59.44C49.04 59.92 46.16 60.28 43.04 60.52C40.96 60.68 39.54 60.78 38.78 60.82C37.98 64.9 36.86 69.9 35.42 75.82C34.58 79.3 32.98 81.04 30.62 81.04C28.06 81.04 26.78 79.88 26.78 77.56C26.78 77.04 26.88 76.32 27.08 75.4C28.44 69.92 29.52 65.28 30.32 61.48L27.44 61.6C26.12 61.6 25.16 61.38 24.56 60.94C23.96 60.46 23.66 59.7 23.66 58.66C23.66 57.34 24.04 56.38 24.8 55.78C25.56 55.14 26.82 54.78 28.58 54.7L31.76 54.58C32.8 48.94 33.32 44.64 33.32 41.68C33.32 39.8 33.04 38.52 32.48 37.84C31.92 37.16 31.18 36.82 30.26 36.82C27.46 36.82 24.3 39.16 20.78 43.84C20.26 44.52 19.68 44.86 19.04 44.86C18.48 44.86 18 44.6 17.6 44.08C17.2 43.56 17 42.9 17 42.1C17 40.86 17.5 39.54 18.5 38.14C20.26 35.7 22.48 33.7 25.16 32.14C27.84 30.54 30.56 29.74 33.32 29.74C35.92 29.74 37.92 30.64 39.32 32.44C40.76 34.2 41.48 36.96 41.48 40.72C41.48 44.04 41 48.54 40.04 54.22L45.92 53.92C48.44 53.8 50.6 53.6 52.4 53.32C53.12 48.92 54.22 44.8 55.7 40.96C57.18 37.12 59.02 34 61.22 31.6C63.42 29.2 65.88 28 68.6 28C70.6 28 72.18 28.8 73.34 30.4C74.5 31.96 75.08 34.02 75.08 36.58C75.08 46.5 70.02 53.38 59.9 57.22C59.78 58.82 59.72 60.48 59.72 62.2C59.72 66.4 60.24 69.38 61.28 71.14C62.32 72.9 63.78 73.78 65.66 73.78C67.3 73.78 68.8 73.36 70.16 72.52C71.52 71.64 73.06 70.16 74.78 68.08C75.26 67.52 75.8 67.24 76.4 67.24ZM68.3 33.22C67.42 33.22 66.48 34.02 65.48 35.62C64.52 37.22 63.6 39.4 62.72 42.16C61.84 44.92 61.14 47.94 60.62 51.22C63.82 49.9 66.18 48.02 67.7 45.58C69.22 43.14 69.98 40 69.98 36.16C69.98 35.24 69.82 34.52 69.5 34C69.18 33.48 68.78 33.22 68.3 33.22Z" fill="#FFE603" fill-opacity="0.5"/>
<path d="M73.4 67.24C73.92 67.24 74.32 67.48 74.6 67.96C74.92 68.44 75.08 69.1 75.08 69.94C75.08 71.5 74.7 72.74 73.94 73.66C69.98 78.5 65.76 80.92 61.28 80.92C57.4 80.92 54.3 79.42 51.98 76.42C49.66 73.42 48.5 69.12 48.5 63.52C48.5 62.16 48.56 60.8 48.68 59.44C46.04 59.92 43.16 60.28 40.04 60.52C37.96 60.68 36.54 60.78 35.78 60.82C34.98 64.9 33.86 69.9 32.42 75.82C31.58 79.3 29.98 81.04 27.62 81.04C25.06 81.04 23.78 79.88 23.78 77.56C23.78 77.04 23.88 76.32 24.08 75.4C25.44 69.92 26.52 65.28 27.32 61.48L24.44 61.6C23.12 61.6 22.16 61.38 21.56 60.94C20.96 60.46 20.66 59.7 20.66 58.66C20.66 57.34 21.04 56.38 21.8 55.78C22.56 55.14 23.82 54.78 25.58 54.7L28.76 54.58C29.8 48.94 30.32 44.64 30.32 41.68C30.32 39.8 30.04 38.52 29.48 37.84C28.92 37.16 28.18 36.82 27.26 36.82C24.46 36.82 21.3 39.16 17.78 43.84C17.26 44.52 16.68 44.86 16.04 44.86C15.48 44.86 15 44.6 14.6 44.08C14.2 43.56 14 42.9 14 42.1C14 40.86 14.5 39.54 15.5 38.14C17.26 35.7 19.48 33.7 22.16 32.14C24.84 30.54 27.56 29.74 30.32 29.74C32.92 29.74 34.92 30.64 36.32 32.44C37.76 34.2 38.48 36.96 38.48 40.72C38.48 44.04 38 48.54 37.04 54.22L42.92 53.92C45.44 53.8 47.6 53.6 49.4 53.32C50.12 48.92 51.22 44.8 52.7 40.96C54.18 37.12 56.02 34 58.22 31.6C60.42 29.2 62.88 28 65.6 28C67.6 28 69.18 28.8 70.34 30.4C71.5 31.96 72.08 34.02 72.08 36.58C72.08 46.5 67.02 53.38 56.9 57.22C56.78 58.82 56.72 60.48 56.72 62.2C56.72 66.4 57.24 69.38 58.28 71.14C59.32 72.9 60.78 73.78 62.66 73.78C64.3 73.78 65.8 73.36 67.16 72.52C68.52 71.64 70.06 70.16 71.78 68.08C72.26 67.52 72.8 67.24 73.4 67.24ZM65.3 33.22C64.42 33.22 63.48 34.02 62.48 35.62C61.52 37.22 60.6 39.4 59.72 42.16C58.84 44.92 58.14 47.94 57.62 51.22C60.82 49.9 63.18 48.02 64.7 45.58C66.22 43.14 66.98 40 66.98 36.16C66.98 35.24 66.82 34.52 66.5 34C66.18 33.48 65.78 33.22 65.3 33.22Z" fill="#5F0308"/>
</g>
<path d="M49.024 33.4386C48.7276 31.3177 51.2473 28.2625 52.5442 27C53.1 28.1362 55.7679 31.3555 61.993 35.143C69.7744 39.8772 77 36.0898 77 38.3623C77 40.1802 74.9003 44.0434 73.8504 45.7477C65.6984 51.4289 49.3946 36.0898 49.024 33.4386Z" fill="white" stroke="#F6F7E9" stroke-linejoin="round"/>
<path d="M67.6567 18.3155C62.194 16.3766 56.2761 23.8466 54 27.8241C58.672 36.4004 74.3054 37.8919 75.0242 36.5868C75.743 35.2817 73.7663 31.5529 74.3054 31.9258C74.8445 32.2986 75.3836 33.2309 78.4384 35.4681C80.8822 37.258 81.1338 35.3439 80.9541 34.1631C79.6962 22.9766 74.4851 20.7393 67.6567 18.3155Z" fill="#C11406" stroke="#C11406" stroke-linejoin="round"/>
<path d="M70 28C71.7073 30.0741 75.4976 34.3778 77 35" stroke="#AB230B" stroke-linecap="round"/>
<path d="M68.4775 30.1992C70.3734 31.2637 74.4976 33.401 75.8276 33.435" stroke="#AB230B" stroke-linecap="round"/>
<path d="M80.5427 41.3537C75.4346 39.4197 79.1883 35.713 81.7037 34.1013C86.657 33.3575 87.2503 36.8907 86.9279 38.7503C86.9279 40.4239 85.6508 43.2876 80.5427 41.3537Z" fill="white" stroke="#F5F5F5"/>
<defs>
<filter id="filter0_d_11_55" x="10" y="28" width="72.0801" height="61.04" filterUnits="userSpaceOnUse" color-interpolation-filters="sRGB">
<feFlood flood-opacity="0" result="BackgroundImageFix"/>
<feColorMatrix in="SourceAlpha" type="matrix" values="0 0 0 0 0 0 0 0 0 0 0 0 0 0 0 0 0 0 127 0" result="hardAlpha"/>
<feOffset dy="4"/>
<feGaussianBlur stdDeviation="2"/>
<feComposite in2="hardAlpha" operator="out"/>
<feColorMatrix type="matrix" values="0 0 0 0 0.670588 0 0 0 0 0.137255 0 0 0 0 0.0431373 0 0 0 0.25 0"/>
<feBlend mode="normal" in2="BackgroundImageFix" result="effect1_dropShadow_11_55"/>
<feBlend mode="normal" in="SourceGraphic" in2="effect1_dropShadow_11_55" result="shape"/>
</filter>
</defs>
</svg>
