<svg width="501" height="79" viewBox="0 0 501 79" fill="none" xmlns="http://www.w3.org/2000/svg">
<path d="M63.9605 37.9457C64.4475 34.34 60.308 29.1462 58.1774 27C57.2643 28.9316 52.8813 34.4044 42.6543 40.843C29.8706 48.8913 18 42.4527 18 46.3159C18 49.4064 21.4496 55.9738 23.1744 58.8712C36.5668 68.5291 63.3518 42.4527 63.9605 37.9457Z" fill="white" stroke="#F6F7E9" stroke-linejoin="round"/>
<path d="M33.2388 12.5315C42.3433 9.26578 52.2065 21.847 56 28.5458C48.2133 42.9901 22.1577 45.5021 20.9597 43.3041C19.7617 41.106 23.0561 34.8259 22.1577 35.4539C21.2592 36.0819 20.3607 37.652 15.2694 41.42C11.1963 44.4345 10.7771 41.2107 11.0765 39.222C13.173 20.3816 21.8582 16.6135 33.2388 12.5315Z" fill="#C11406" stroke="#C11406" stroke-linejoin="round"/>
<path d="M28 30C25.561 32.963 20.1463 39.1111 18 40" stroke="#AB230B" stroke-linecap="round"/>
<path d="M31.6416 32.7051C28.4672 34.4874 21.5615 38.0663 19.3346 38.1232" stroke="#AB230B" stroke-linecap="round"/>
<path d="M11.0447 50.9497C18.9906 47.8071 13.1515 41.7836 9.23876 39.1647C1.53358 37.956 0.610576 43.6974 1.11222 46.7192C1.11222 49.4388 3.0987 54.0924 11.0447 50.9497Z" fill="white" stroke="#F5F5F5"/>
<g filter="url(#filter0_d_18_256)">
<path d="M142.44 50.62C142.96 50.62 143.36 50.86 143.64 51.34C143.96 51.82 144.12 52.48 144.12 53.32C144.12 54.88 143.74 56.12 142.98 57.04C139.02 61.88 134.8 64.3 130.32 64.3C126.44 64.3 123.34 62.8 121.02 59.8C118.7 56.8 117.54 52.5 117.54 46.9C117.54 45.54 117.6 44.18 117.72 42.82C115.08 43.3 112.2 43.66 109.08 43.9C107 44.06 105.58 44.16 104.82 44.2C104.02 48.28 102.9 53.28 101.46 59.2C100.62 62.68 99.02 64.42 96.66 64.42C94.1 64.42 92.82 63.26 92.82 60.94C92.82 60.42 92.92 59.7 93.12 58.78C94.48 53.3 95.56 48.66 96.36 44.86L93.48 44.98C92.16 44.98 91.2 44.76 90.6 44.32C90 43.84 89.7 43.08 89.7 42.04C89.7 40.72 90.08 39.76 90.84 39.16C91.6 38.52 92.86 38.16 94.62 38.08L97.8 37.96C98.84 32.32 99.36 28.02 99.36 25.06C99.36 23.18 99.08 21.9 98.52 21.22C97.96 20.54 97.22 20.2 96.3 20.2C93.5 20.2 90.34 22.54 86.82 27.22C86.3 27.9 85.72 28.24 85.08 28.24C84.52 28.24 84.04 27.98 83.64 27.46C83.24 26.94 83.04 26.28 83.04 25.48C83.04 24.24 83.54 22.92 84.54 21.52C86.3 19.08 88.52 17.08 91.2 15.52C93.88 13.92 96.6 13.12 99.36 13.12C101.96 13.12 103.96 14.02 105.36 15.82C106.8 17.58 107.52 20.34 107.52 24.1C107.52 27.42 107.04 31.92 106.08 37.6L111.96 37.3C114.48 37.18 116.64 36.98 118.44 36.7C119.16 32.3 120.26 28.18 121.74 24.34C123.22 20.5 125.06 17.38 127.26 14.98C129.46 12.58 131.92 11.38 134.64 11.38C136.64 11.38 138.22 12.18 139.38 13.78C140.54 15.34 141.12 17.4 141.12 19.96C141.12 29.88 136.06 36.76 125.94 40.6C125.82 42.2 125.76 43.86 125.76 45.58C125.76 49.78 126.28 52.76 127.32 54.52C128.36 56.28 129.82 57.16 131.7 57.16C133.34 57.16 134.84 56.74 136.2 55.9C137.56 55.02 139.1 53.54 140.82 51.46C141.3 50.9 141.84 50.62 142.44 50.62ZM134.34 16.6C133.46 16.6 132.52 17.4 131.52 19C130.56 20.6 129.64 22.78 128.76 25.54C127.88 28.3 127.18 31.32 126.66 34.6C129.86 33.28 132.22 31.4 133.74 28.96C135.26 26.52 136.02 23.38 136.02 19.54C136.02 18.62 135.86 17.9 135.54 17.38C135.22 16.86 134.82 16.6 134.34 16.6ZM177.056 45.58C177.576 45.58 177.976 45.84 178.256 46.36C178.536 46.88 178.676 47.54 178.676 48.34C178.676 50.26 178.096 51.4 176.936 51.76C174.536 52.6 171.896 53.08 169.016 53.2C168.256 56.56 166.756 59.26 164.516 61.3C162.276 63.3 159.736 64.3 156.896 64.3C154.496 64.3 152.436 63.72 150.716 62.56C149.036 61.4 147.756 59.86 146.876 57.94C145.996 56.02 145.556 53.94 145.556 51.7C145.556 48.66 146.136 45.96 147.296 43.6C148.456 41.2 150.056 39.34 152.096 38.02C154.136 36.66 156.396 35.98 158.876 35.98C161.916 35.98 164.356 37.04 166.196 39.16C168.076 41.24 169.176 43.82 169.496 46.9C171.376 46.78 173.616 46.38 176.216 45.7C176.536 45.62 176.816 45.58 177.056 45.58ZM157.376 57.94C158.656 57.94 159.756 57.42 160.676 56.38C161.636 55.34 162.276 53.84 162.596 51.88C161.356 51.04 160.396 49.94 159.716 48.58C159.076 47.22 158.756 45.78 158.756 44.26C158.756 43.62 158.816 42.98 158.936 42.34H158.636C157.036 42.34 155.696 43.12 154.616 44.68C153.576 46.2 153.056 48.36 153.056 51.16C153.056 53.36 153.476 55.04 154.316 56.2C155.196 57.36 156.216 57.94 157.376 57.94ZM195.666 50.62C196.186 50.62 196.586 50.86 196.866 51.34C197.186 51.82 197.346 52.48 197.346 53.32C197.346 54.92 196.966 56.16 196.206 57.04C194.486 59.16 192.606 60.9 190.566 62.26C188.566 63.62 186.286 64.3 183.726 64.3C180.206 64.3 177.586 62.7 175.866 59.5C174.186 56.3 173.346 52.16 173.346 47.08C173.346 42.2 173.966 36.64 175.206 30.4C176.486 24.16 178.346 18.8 180.786 14.32C183.266 9.84 186.206 7.6 189.606 7.6C191.526 7.6 193.026 8.5 194.106 10.3C195.226 12.06 195.786 14.6 195.786 17.92C195.786 22.68 194.466 28.2 191.826 34.48C189.186 40.76 185.606 46.98 181.086 53.14C181.366 54.78 181.826 55.96 182.466 56.68C183.106 57.36 183.946 57.7 184.986 57.7C186.626 57.7 188.066 57.24 189.306 56.32C190.546 55.36 192.126 53.74 194.046 51.46C194.526 50.9 195.066 50.62 195.666 50.62ZM188.286 13.54C187.366 13.54 186.326 15.2 185.166 18.52C184.006 21.84 182.986 25.96 182.106 30.88C181.226 35.8 180.746 40.52 180.666 45.04C183.506 40.36 185.766 35.68 187.446 31C189.126 26.28 189.966 21.98 189.966 18.1C189.966 15.06 189.406 13.54 188.286 13.54ZM199.756 32.08C198.076 32.08 196.816 31.7 195.976 30.94C195.136 30.14 194.716 29.04 194.716 27.64C194.716 26.24 195.256 25.08 196.336 24.16C197.456 23.2 198.836 22.72 200.476 22.72C201.956 22.72 203.156 23.08 204.076 23.8C204.996 24.52 205.456 25.54 205.456 26.86C205.456 28.46 204.936 29.74 203.896 30.7C202.856 31.62 201.476 32.08 199.756 32.08ZM199.276 64.3C196.676 64.3 194.776 63.38 193.576 61.54C192.416 59.7 191.836 57.26 191.836 54.22C191.836 52.42 192.056 50.12 192.496 47.32C192.976 44.48 193.576 41.84 194.296 39.4C194.656 38.12 195.136 37.24 195.736 36.76C196.336 36.28 197.296 36.04 198.616 36.04C200.656 36.04 201.676 36.72 201.676 38.08C201.676 39.08 201.296 41.4 200.536 45.04C199.576 49.44 199.096 52.42 199.096 53.98C199.096 55.18 199.256 56.1 199.576 56.74C199.896 57.38 200.436 57.7 201.196 57.7C201.916 57.7 202.816 57.2 203.896 56.2C204.976 55.2 206.416 53.62 208.216 51.46C208.696 50.9 209.236 50.62 209.836 50.62C210.356 50.62 210.756 50.86 211.036 51.34C211.356 51.82 211.516 52.48 211.516 53.32C211.516 54.92 211.136 56.16 210.376 57.04C206.416 61.88 202.716 64.3 199.276 64.3ZM249.142 17.98C249.142 19.18 248.882 20.08 248.362 20.68C247.882 21.28 247.082 21.58 245.962 21.58C245.882 22.42 245.702 23.88 245.422 25.96C245.022 28.76 244.802 30.32 244.762 30.64C241.202 57.16 233.782 70.42 222.502 70.42C219.182 70.42 216.582 69.48 214.702 67.6C212.862 65.72 211.942 63.36 211.942 60.52C211.942 55.44 214.102 50.96 218.422 47.08C222.742 43.16 228.422 39.92 235.462 37.36C235.902 34.52 236.242 31.98 236.482 29.74L237.562 20.68C235.162 20.44 232.922 20.32 230.842 20.32C225.282 20.32 221.182 20.86 218.542 21.94C215.902 23.02 214.582 24.78 214.582 27.22C214.582 28.42 214.982 29.72 215.782 31.12C216.022 31.52 216.142 31.94 216.142 32.38C216.142 33.22 215.702 33.98 214.822 34.66C213.982 35.3 213.062 35.62 212.062 35.62C210.782 35.62 209.802 35.08 209.122 34C208.002 32.16 207.442 30.02 207.442 27.58C207.442 17.98 215.842 13.18 232.642 13.18C237.522 13.18 241.882 13.66 245.722 14.62C248.002 15.18 249.142 16.3 249.142 17.98ZM223.282 64C225.242 64 227.202 62.52 229.162 59.56C231.122 56.6 232.842 51.42 234.322 44.02C224.562 48.3 219.682 53.54 219.682 59.74C219.682 61.1 220.002 62.16 220.642 62.92C221.282 63.64 222.162 64 223.282 64ZM277.957 45.58C278.477 45.58 278.877 45.84 279.157 46.36C279.437 46.88 279.577 47.54 279.577 48.34C279.577 50.26 278.997 51.4 277.837 51.76C275.437 52.6 272.797 53.08 269.917 53.2C269.157 56.56 267.657 59.26 265.417 61.3C263.177 63.3 260.637 64.3 257.797 64.3C255.397 64.3 253.337 63.72 251.617 62.56C249.937 61.4 248.657 59.86 247.777 57.94C246.897 56.02 246.457 53.94 246.457 51.7C246.457 48.66 247.037 45.96 248.197 43.6C249.357 41.2 250.957 39.34 252.997 38.02C255.037 36.66 257.297 35.98 259.777 35.98C262.817 35.98 265.257 37.04 267.097 39.16C268.977 41.24 270.077 43.82 270.397 46.9C272.277 46.78 274.517 46.38 277.117 45.7C277.437 45.62 277.717 45.58 277.957 45.58ZM258.277 57.94C259.557 57.94 260.657 57.42 261.577 56.38C262.537 55.34 263.177 53.84 263.497 51.88C262.257 51.04 261.297 49.94 260.617 48.58C259.977 47.22 259.657 45.78 259.657 44.26C259.657 43.62 259.717 42.98 259.837 42.34H259.537C257.937 42.34 256.597 43.12 255.517 44.68C254.477 46.2 253.957 48.36 253.957 51.16C253.957 53.36 254.377 55.04 255.217 56.2C256.097 57.36 257.117 57.94 258.277 57.94ZM296.567 50.62C297.087 50.62 297.487 50.86 297.767 51.34C298.087 51.82 298.247 52.48 298.247 53.32C298.247 54.92 297.867 56.16 297.107 57.04C295.387 59.16 293.507 60.9 291.467 62.26C289.467 63.62 287.187 64.3 284.627 64.3C281.107 64.3 278.487 62.7 276.767 59.5C275.087 56.3 274.247 52.16 274.247 47.08C274.247 42.2 274.867 36.64 276.107 30.4C277.387 24.16 279.247 18.8 281.687 14.32C284.167 9.84 287.107 7.6 290.507 7.6C292.427 7.6 293.927 8.5 295.007 10.3C296.127 12.06 296.687 14.6 296.687 17.92C296.687 22.68 295.367 28.2 292.727 34.48C290.087 40.76 286.507 46.98 281.987 53.14C282.267 54.78 282.727 55.96 283.367 56.68C284.007 57.36 284.847 57.7 285.887 57.7C287.527 57.7 288.967 57.24 290.207 56.32C291.447 55.36 293.027 53.74 294.947 51.46C295.427 50.9 295.967 50.62 296.567 50.62ZM289.187 13.54C288.267 13.54 287.227 15.2 286.067 18.52C284.907 21.84 283.887 25.96 283.007 30.88C282.127 35.8 281.647 40.52 281.567 45.04C284.407 40.36 286.667 35.68 288.347 31C290.027 26.28 290.867 21.98 290.867 18.1C290.867 15.06 290.307 13.54 289.187 13.54ZM301.077 32.08C299.397 32.08 298.137 31.7 297.297 30.94C296.457 30.14 296.037 29.04 296.037 27.64C296.037 26.24 296.577 25.08 297.657 24.16C298.777 23.2 300.157 22.72 301.797 22.72C303.277 22.72 304.477 23.08 305.397 23.8C306.317 24.52 306.777 25.54 306.777 26.86C306.777 28.46 306.257 29.74 305.217 30.7C304.177 31.62 302.797 32.08 301.077 32.08ZM295.317 64.3C294.037 64.3 293.157 64.04 292.677 63.52C292.197 63 291.957 62.18 291.957 61.06C291.957 60.74 291.997 60.18 292.077 59.38C292.717 52.06 293.777 45.4 295.257 39.4C295.577 38.16 296.097 37.3 296.817 36.82C297.577 36.3 298.777 36.04 300.417 36.04C302.137 36.04 302.997 36.74 302.997 38.14C302.997 38.34 302.957 38.72 302.877 39.28C301.077 47.84 299.997 55.02 299.637 60.82C299.557 62.1 299.177 63 298.497 63.52C297.817 64.04 296.757 64.3 295.317 64.3ZM325.037 64.3C323.517 64.3 322.437 63.5 321.797 61.9C321.197 60.3 320.897 57.74 320.897 54.22C320.897 49.02 321.637 44.08 323.117 39.4C323.477 38.24 324.057 37.4 324.857 36.88C325.697 36.32 326.857 36.04 328.337 36.04C329.137 36.04 329.697 36.14 330.017 36.34C330.337 36.54 330.497 36.92 330.497 37.48C330.497 38.12 330.197 39.56 329.597 41.8C329.197 43.4 328.877 44.8 328.637 46C328.397 47.16 328.197 48.62 328.037 50.38C329.117 47.26 330.397 44.62 331.877 42.46C333.397 40.3 334.937 38.7 336.497 37.66C338.097 36.58 339.597 36.04 340.997 36.04C342.397 36.04 343.377 36.36 343.937 37C344.537 37.64 344.837 38.62 344.837 39.94C344.837 41.22 344.457 43.54 343.697 46.9C343.377 48.34 343.157 49.42 343.037 50.14C345.037 45.22 347.257 41.64 349.697 39.4C352.137 37.16 354.417 36.04 356.537 36.04C359.137 36.04 360.437 37.34 360.437 39.94C360.437 41.5 359.997 44.32 359.117 48.4C358.357 51.88 357.977 54.18 357.977 55.3C357.977 56.9 358.557 57.7 359.717 57.7C360.517 57.7 361.457 57.22 362.537 56.26C363.657 55.26 365.137 53.66 366.977 51.46C367.457 50.9 367.997 50.62 368.597 50.62C369.117 50.62 369.517 50.86 369.797 51.34C370.117 51.82 370.277 52.48 370.277 53.32C370.277 54.92 369.897 56.16 369.137 57.04C367.417 59.16 365.557 60.9 363.557 62.26C361.597 63.62 359.357 64.3 356.837 64.3C354.797 64.3 353.257 63.72 352.217 62.56C351.177 61.36 350.657 59.64 350.657 57.4C350.657 56.28 350.937 54.28 351.497 51.4C352.017 48.88 352.277 47.14 352.277 46.18C352.277 45.54 352.057 45.22 351.617 45.22C351.097 45.22 350.357 45.9 349.397 47.26C348.437 48.58 347.477 50.34 346.517 52.54C345.557 54.74 344.777 57.06 344.177 59.5C343.737 61.42 343.217 62.7 342.617 63.34C342.057 63.98 341.137 64.3 339.857 64.3C338.537 64.3 337.537 63.68 336.857 62.44C336.217 61.16 335.897 59.62 335.897 57.82C335.897 56.3 336.097 54.1 336.497 51.22C336.817 48.66 336.977 46.98 336.977 46.18C336.977 45.54 336.757 45.22 336.317 45.22C335.717 45.22 334.957 45.94 334.037 47.38C333.117 48.82 332.217 50.66 331.337 52.9C330.497 55.14 329.817 57.34 329.297 59.5C328.857 61.38 328.337 62.66 327.737 63.34C327.177 63.98 326.277 64.3 325.037 64.3ZM372.205 64.3C369.725 64.3 367.745 63.4 366.265 61.6C364.785 59.8 364.045 57.44 364.045 54.52C364.045 51.32 364.785 48.3 366.265 45.46C367.745 42.58 369.705 40.28 372.145 38.56C374.625 36.8 377.245 35.92 380.005 35.92C380.885 35.92 381.465 36.1 381.745 36.46C382.065 36.78 382.325 37.38 382.525 38.26C383.365 38.1 384.245 38.02 385.165 38.02C387.125 38.02 388.105 38.72 388.105 40.12C388.105 40.96 387.805 42.96 387.205 46.12C386.285 50.72 385.825 53.92 385.825 55.72C385.825 56.32 385.965 56.8 386.245 57.16C386.565 57.52 386.965 57.7 387.445 57.7C388.205 57.7 389.125 57.22 390.205 56.26C391.285 55.26 392.745 53.66 394.585 51.46C395.065 50.9 395.605 50.62 396.205 50.62C396.725 50.62 397.125 50.86 397.405 51.34C397.725 51.82 397.885 52.48 397.885 53.32C397.885 54.92 397.505 56.16 396.745 57.04C395.105 59.08 393.365 60.8 391.525 62.2C389.685 63.6 387.905 64.3 386.185 64.3C384.865 64.3 383.645 63.86 382.525 62.98C381.445 62.06 380.625 60.82 380.065 59.26C377.985 62.62 375.365 64.3 372.205 64.3ZM374.365 58.24C375.245 58.24 376.085 57.72 376.885 56.68C377.685 55.64 378.265 54.26 378.625 52.54L380.845 41.5C379.165 41.54 377.605 42.18 376.165 43.42C374.765 44.62 373.645 46.22 372.805 48.22C371.965 50.22 371.545 52.34 371.545 54.58C371.545 55.82 371.785 56.74 372.265 57.34C372.785 57.94 373.485 58.24 374.365 58.24ZM396.669 64.3C395.149 64.3 394.069 63.5 393.429 61.9C392.829 60.3 392.529 57.74 392.529 54.22C392.529 49.02 393.269 44.08 394.749 39.4C395.109 38.24 395.689 37.4 396.489 36.88C397.329 36.32 398.489 36.04 399.969 36.04C400.769 36.04 401.329 36.14 401.649 36.34C401.969 36.54 402.129 36.92 402.129 37.48C402.129 38.12 401.829 39.56 401.229 41.8C400.829 43.4 400.509 44.8 400.269 46C400.029 47.2 399.829 48.68 399.669 50.44C400.989 47 402.469 44.2 404.109 42.04C405.749 39.88 407.349 38.34 408.909 37.42C410.509 36.5 411.969 36.04 413.289 36.04C415.889 36.04 417.189 37.34 417.189 39.94C417.189 40.46 417.009 41.72 416.649 43.72C416.329 45.32 416.169 46.32 416.169 46.72C416.169 48.12 416.669 48.82 417.669 48.82C418.789 48.82 420.229 47.94 421.989 46.18C422.509 45.66 423.049 45.4 423.609 45.4C424.129 45.4 424.529 45.64 424.809 46.12C425.129 46.56 425.289 47.16 425.289 47.92C425.289 49.4 424.889 50.56 424.089 51.4C422.969 52.56 421.649 53.56 420.129 54.4C418.649 55.2 417.069 55.6 415.389 55.6C413.269 55.6 411.649 55.06 410.529 53.98C409.449 52.9 408.909 51.44 408.909 49.6C408.909 49 408.969 48.4 409.089 47.8C409.169 47 409.209 46.46 409.209 46.18C409.209 45.54 408.989 45.22 408.549 45.22C407.949 45.22 407.149 45.9 406.149 47.26C405.189 48.58 404.229 50.34 403.269 52.54C402.309 54.74 401.529 57.06 400.929 59.5C400.489 61.38 399.969 62.66 399.369 63.34C398.809 63.98 397.909 64.3 396.669 64.3ZM453.794 50.62C454.314 50.62 454.714 50.86 454.994 51.34C455.314 51.82 455.474 52.48 455.474 53.32C455.474 54.92 455.094 56.16 454.334 57.04C452.534 59.24 450.714 61 448.874 62.32C447.034 63.64 444.854 64.3 442.334 64.3C439.254 64.3 436.774 63.42 434.894 61.66C433.014 59.9 432.074 57.56 432.074 54.64C432.074 53.08 432.874 51.96 434.474 51.28C436.234 50.52 437.494 49.72 438.254 48.88C439.014 48 439.394 46.94 439.394 45.7C439.394 44.98 439.234 44.44 438.914 44.08C438.634 43.72 438.274 43.54 437.834 43.54C436.754 43.54 435.554 44.32 434.234 45.88C432.954 47.44 431.754 49.46 430.634 51.94C429.514 54.38 428.634 56.9 427.994 59.5C427.554 61.38 427.034 62.66 426.434 63.34C425.874 63.98 424.974 64.3 423.734 64.3C422.494 64.3 421.574 63.86 420.974 62.98C420.414 62.06 420.034 60.66 419.834 58.78C419.634 56.9 419.534 54.14 419.534 50.5C419.534 44.34 420.154 37.92 421.394 31.24C422.674 24.56 424.534 18.96 426.974 14.44C429.454 9.88 432.414 7.6 435.854 7.6C437.694 7.6 439.174 8.4 440.294 10C441.454 11.56 442.034 13.6 442.034 16.12C442.034 20.16 440.854 24.36 438.494 28.72C436.134 33.04 432.294 38.1 426.974 43.9C426.854 45.98 426.794 48.12 426.794 50.32C428.714 45.32 430.914 41.7 433.394 39.46C435.874 37.18 438.194 36.04 440.354 36.04C442.354 36.04 443.954 36.72 445.154 38.08C446.394 39.44 447.014 41.12 447.014 43.12C447.014 45.32 446.454 47.34 445.334 49.18C444.214 51.02 442.294 52.66 439.574 54.1C439.734 55.18 440.214 56.06 441.014 56.74C441.854 57.38 442.854 57.7 444.014 57.7C445.254 57.7 446.454 57.22 447.614 56.26C448.774 55.3 450.294 53.7 452.174 51.46C452.654 50.9 453.194 50.62 453.794 50.62ZM434.594 13.54C433.874 13.54 433.074 14.58 432.194 16.66C431.314 18.7 430.454 21.48 429.614 25C428.814 28.48 428.154 32.28 427.634 36.4C430.114 33.48 432.154 30.3 433.754 26.86C435.394 23.42 436.214 20.3 436.214 17.5C436.214 16.22 436.074 15.24 435.794 14.56C435.514 13.88 435.114 13.54 434.594 13.54ZM476.797 50.62C477.317 50.62 477.717 50.86 477.997 51.34C478.317 51.82 478.477 52.48 478.477 53.32C478.477 54.92 478.097 56.16 477.337 57.04C475.857 58.84 473.757 60.5 471.037 62.02C468.357 63.54 465.477 64.3 462.397 64.3C458.197 64.3 454.937 63.16 452.617 60.88C450.297 58.6 449.137 55.48 449.137 51.52C449.137 48.76 449.717 46.2 450.877 43.84C452.037 41.44 453.637 39.54 455.677 38.14C457.757 36.74 460.097 36.04 462.697 36.04C465.017 36.04 466.877 36.74 468.277 38.14C469.677 39.5 470.377 41.36 470.377 43.72C470.377 46.48 469.377 48.86 467.377 50.86C465.417 52.82 462.077 54.38 457.357 55.54C458.357 57.38 460.257 58.3 463.057 58.3C464.857 58.3 466.897 57.68 469.177 56.44C471.497 55.16 473.497 53.5 475.177 51.46C475.657 50.9 476.197 50.62 476.797 50.62ZM461.677 41.92C460.197 41.92 458.937 42.78 457.897 44.5C456.897 46.22 456.397 48.3 456.397 50.74V50.86C458.757 50.3 460.617 49.46 461.977 48.34C463.337 47.22 464.017 45.92 464.017 44.44C464.017 43.68 463.797 43.08 463.357 42.64C462.957 42.16 462.397 41.92 461.677 41.92ZM482.892 41.74C482.812 43.74 482.772 45.3 482.772 46.42C482.772 49.3 482.912 51.56 483.192 53.2C483.512 54.8 484.012 55.96 484.692 56.68C485.412 57.36 486.392 57.7 487.632 57.7C488.272 57.7 489.032 57.5 489.912 57.1C490.792 56.7 491.592 56.18 492.312 55.54C492.752 55.14 493.192 54.94 493.632 54.94C494.112 54.94 494.492 55.22 494.772 55.78C495.092 56.3 495.252 56.94 495.252 57.7C495.252 58.46 495.092 59.2 494.772 59.92C494.492 60.64 494.052 61.24 493.452 61.72C491.372 63.44 489.012 64.3 486.372 64.3C482.572 64.3 479.792 62.72 478.032 59.56C476.272 56.36 475.392 52.2 475.392 47.08C475.392 45.32 475.452 43.54 475.572 41.74H473.232C472.032 41.74 471.212 41.52 470.772 41.08C470.372 40.64 470.172 39.94 470.172 38.98C470.172 36.74 471.072 35.62 472.872 35.62H476.292C476.972 31.22 478.012 27.2 479.412 23.56C480.812 19.92 482.492 17.02 484.452 14.86C486.452 12.7 488.592 11.62 490.872 11.62C492.552 11.62 493.872 12.36 494.832 13.84C495.792 15.32 496.272 17.18 496.272 19.42C496.272 25.62 493.672 31.02 488.472 35.62H495.192C495.832 35.62 496.292 35.76 496.572 36.04C496.852 36.32 496.992 36.84 496.992 37.6C496.992 40.36 494.732 41.74 490.212 41.74H482.892ZM489.252 17.38C488.652 17.38 487.972 18.14 487.212 19.66C486.492 21.14 485.792 23.22 485.112 25.9C484.472 28.54 483.932 31.48 483.492 34.72C485.852 32.68 487.612 30.4 488.772 27.88C489.972 25.32 490.572 23 490.572 20.92C490.572 18.56 490.132 17.38 489.252 17.38Z" fill="#F4D633" fill-opacity="0.6"/>
<path d="M137.44 48.62C137.96 48.62 138.36 48.86 138.64 49.34C138.96 49.82 139.12 50.48 139.12 51.32C139.12 52.88 138.74 54.12 137.98 55.04C134.02 59.88 129.8 62.3 125.32 62.3C121.44 62.3 118.34 60.8 116.02 57.8C113.7 54.8 112.54 50.5 112.54 44.9C112.54 43.54 112.6 42.18 112.72 40.82C110.08 41.3 107.2 41.66 104.08 41.9C102 42.06 100.58 42.16 99.82 42.2C99.02 46.28 97.9 51.28 96.46 57.2C95.62 60.68 94.02 62.42 91.66 62.42C89.1 62.42 87.82 61.26 87.82 58.94C87.82 58.42 87.92 57.7 88.12 56.78C89.48 51.3 90.56 46.66 91.36 42.86L88.48 42.98C87.16 42.98 86.2 42.76 85.6 42.32C85 41.84 84.7 41.08 84.7 40.04C84.7 38.72 85.08 37.76 85.84 37.16C86.6 36.52 87.86 36.16 89.62 36.08L92.8 35.96C93.84 30.32 94.36 26.02 94.36 23.06C94.36 21.18 94.08 19.9 93.52 19.22C92.96 18.54 92.22 18.2 91.3 18.2C88.5 18.2 85.34 20.54 81.82 25.22C81.3 25.9 80.72 26.24 80.08 26.24C79.52 26.24 79.04 25.98 78.64 25.46C78.24 24.94 78.04 24.28 78.04 23.48C78.04 22.24 78.54 20.92 79.54 19.52C81.3 17.08 83.52 15.08 86.2 13.52C88.88 11.92 91.6 11.12 94.36 11.12C96.96 11.12 98.96 12.02 100.36 13.82C101.8 15.58 102.52 18.34 102.52 22.1C102.52 25.42 102.04 29.92 101.08 35.6L106.96 35.3C109.48 35.18 111.64 34.98 113.44 34.7C114.16 30.3 115.26 26.18 116.74 22.34C118.22 18.5 120.06 15.38 122.26 12.98C124.46 10.58 126.92 9.38 129.64 9.38C131.64 9.38 133.22 10.18 134.38 11.78C135.54 13.34 136.12 15.4 136.12 17.96C136.12 27.88 131.06 34.76 120.94 38.6C120.82 40.2 120.76 41.86 120.76 43.58C120.76 47.78 121.28 50.76 122.32 52.52C123.36 54.28 124.82 55.16 126.7 55.16C128.34 55.16 129.84 54.74 131.2 53.9C132.56 53.02 134.1 51.54 135.82 49.46C136.3 48.9 136.84 48.62 137.44 48.62ZM129.34 14.6C128.46 14.6 127.52 15.4 126.52 17C125.56 18.6 124.64 20.78 123.76 23.54C122.88 26.3 122.18 29.32 121.66 32.6C124.86 31.28 127.22 29.4 128.74 26.96C130.26 24.52 131.02 21.38 131.02 17.54C131.02 16.62 130.86 15.9 130.54 15.38C130.22 14.86 129.82 14.6 129.34 14.6ZM172.056 43.58C172.576 43.58 172.976 43.84 173.256 44.36C173.536 44.88 173.676 45.54 173.676 46.34C173.676 48.26 173.096 49.4 171.936 49.76C169.536 50.6 166.896 51.08 164.016 51.2C163.256 54.56 161.756 57.26 159.516 59.3C157.276 61.3 154.736 62.3 151.896 62.3C149.496 62.3 147.436 61.72 145.716 60.56C144.036 59.4 142.756 57.86 141.876 55.94C140.996 54.02 140.556 51.94 140.556 49.7C140.556 46.66 141.136 43.96 142.296 41.6C143.456 39.2 145.056 37.34 147.096 36.02C149.136 34.66 151.396 33.98 153.876 33.98C156.916 33.98 159.356 35.04 161.196 37.16C163.076 39.24 164.176 41.82 164.496 44.9C166.376 44.78 168.616 44.38 171.216 43.7C171.536 43.62 171.816 43.58 172.056 43.58ZM152.376 55.94C153.656 55.94 154.756 55.42 155.676 54.38C156.636 53.34 157.276 51.84 157.596 49.88C156.356 49.04 155.396 47.94 154.716 46.58C154.076 45.22 153.756 43.78 153.756 42.26C153.756 41.62 153.816 40.98 153.936 40.34H153.636C152.036 40.34 150.696 41.12 149.616 42.68C148.576 44.2 148.056 46.36 148.056 49.16C148.056 51.36 148.476 53.04 149.316 54.2C150.196 55.36 151.216 55.94 152.376 55.94ZM190.666 48.62C191.186 48.62 191.586 48.86 191.866 49.34C192.186 49.82 192.346 50.48 192.346 51.32C192.346 52.92 191.966 54.16 191.206 55.04C189.486 57.16 187.606 58.9 185.566 60.26C183.566 61.62 181.286 62.3 178.726 62.3C175.206 62.3 172.586 60.7 170.866 57.5C169.186 54.3 168.346 50.16 168.346 45.08C168.346 40.2 168.966 34.64 170.206 28.4C171.486 22.16 173.346 16.8 175.786 12.32C178.266 7.84 181.206 5.6 184.606 5.6C186.526 5.6 188.026 6.5 189.106 8.3C190.226 10.06 190.786 12.6 190.786 15.92C190.786 20.68 189.466 26.2 186.826 32.48C184.186 38.76 180.606 44.98 176.086 51.14C176.366 52.78 176.826 53.96 177.466 54.68C178.106 55.36 178.946 55.7 179.986 55.7C181.626 55.7 183.066 55.24 184.306 54.32C185.546 53.36 187.126 51.74 189.046 49.46C189.526 48.9 190.066 48.62 190.666 48.62ZM183.286 11.54C182.366 11.54 181.326 13.2 180.166 16.52C179.006 19.84 177.986 23.96 177.106 28.88C176.226 33.8 175.746 38.52 175.666 43.04C178.506 38.36 180.766 33.68 182.446 29C184.126 24.28 184.966 19.98 184.966 16.1C184.966 13.06 184.406 11.54 183.286 11.54ZM194.756 30.08C193.076 30.08 191.816 29.7 190.976 28.94C190.136 28.14 189.716 27.04 189.716 25.64C189.716 24.24 190.256 23.08 191.336 22.16C192.456 21.2 193.836 20.72 195.476 20.72C196.956 20.72 198.156 21.08 199.076 21.8C199.996 22.52 200.456 23.54 200.456 24.86C200.456 26.46 199.936 27.74 198.896 28.7C197.856 29.62 196.476 30.08 194.756 30.08ZM194.276 62.3C191.676 62.3 189.776 61.38 188.576 59.54C187.416 57.7 186.836 55.26 186.836 52.22C186.836 50.42 187.056 48.12 187.496 45.32C187.976 42.48 188.576 39.84 189.296 37.4C189.656 36.12 190.136 35.24 190.736 34.76C191.336 34.28 192.296 34.04 193.616 34.04C195.656 34.04 196.676 34.72 196.676 36.08C196.676 37.08 196.296 39.4 195.536 43.04C194.576 47.44 194.096 50.42 194.096 51.98C194.096 53.18 194.256 54.1 194.576 54.74C194.896 55.38 195.436 55.7 196.196 55.7C196.916 55.7 197.816 55.2 198.896 54.2C199.976 53.2 201.416 51.62 203.216 49.46C203.696 48.9 204.236 48.62 204.836 48.62C205.356 48.62 205.756 48.86 206.036 49.34C206.356 49.82 206.516 50.48 206.516 51.32C206.516 52.92 206.136 54.16 205.376 55.04C201.416 59.88 197.716 62.3 194.276 62.3ZM244.142 15.98C244.142 17.18 243.882 18.08 243.362 18.68C242.882 19.28 242.082 19.58 240.962 19.58C240.882 20.42 240.702 21.88 240.422 23.96C240.022 26.76 239.802 28.32 239.762 28.64C236.202 55.16 228.782 68.42 217.502 68.42C214.182 68.42 211.582 67.48 209.702 65.6C207.862 63.72 206.942 61.36 206.942 58.52C206.942 53.44 209.102 48.96 213.422 45.08C217.742 41.16 223.422 37.92 230.462 35.36C230.902 32.52 231.242 29.98 231.482 27.74L232.562 18.68C230.162 18.44 227.922 18.32 225.842 18.32C220.282 18.32 216.182 18.86 213.542 19.94C210.902 21.02 209.582 22.78 209.582 25.22C209.582 26.42 209.982 27.72 210.782 29.12C211.022 29.52 211.142 29.94 211.142 30.38C211.142 31.22 210.702 31.98 209.822 32.66C208.982 33.3 208.062 33.62 207.062 33.62C205.782 33.62 204.802 33.08 204.122 32C203.002 30.16 202.442 28.02 202.442 25.58C202.442 15.98 210.842 11.18 227.642 11.18C232.522 11.18 236.882 11.66 240.722 12.62C243.002 13.18 244.142 14.3 244.142 15.98ZM218.282 62C220.242 62 222.202 60.52 224.162 57.56C226.122 54.6 227.842 49.42 229.322 42.02C219.562 46.3 214.682 51.54 214.682 57.74C214.682 59.1 215.002 60.16 215.642 60.92C216.282 61.64 217.162 62 218.282 62ZM272.957 43.58C273.477 43.58 273.877 43.84 274.157 44.36C274.437 44.88 274.577 45.54 274.577 46.34C274.577 48.26 273.997 49.4 272.837 49.76C270.437 50.6 267.797 51.08 264.917 51.2C264.157 54.56 262.657 57.26 260.417 59.3C258.177 61.3 255.637 62.3 252.797 62.3C250.397 62.3 248.337 61.72 246.617 60.56C244.937 59.4 243.657 57.86 242.777 55.94C241.897 54.02 241.457 51.94 241.457 49.7C241.457 46.66 242.037 43.96 243.197 41.6C244.357 39.2 245.957 37.34 247.997 36.02C250.037 34.66 252.297 33.98 254.777 33.98C257.817 33.98 260.257 35.04 262.097 37.16C263.977 39.24 265.077 41.82 265.397 44.9C267.277 44.78 269.517 44.38 272.117 43.7C272.437 43.62 272.717 43.58 272.957 43.58ZM253.277 55.94C254.557 55.94 255.657 55.42 256.577 54.38C257.537 53.34 258.177 51.84 258.497 49.88C257.257 49.04 256.297 47.94 255.617 46.58C254.977 45.22 254.657 43.78 254.657 42.26C254.657 41.62 254.717 40.98 254.837 40.34H254.537C252.937 40.34 251.597 41.12 250.517 42.68C249.477 44.2 248.957 46.36 248.957 49.16C248.957 51.36 249.377 53.04 250.217 54.2C251.097 55.36 252.117 55.94 253.277 55.94ZM291.567 48.62C292.087 48.62 292.487 48.86 292.767 49.34C293.087 49.82 293.247 50.48 293.247 51.32C293.247 52.92 292.867 54.16 292.107 55.04C290.387 57.16 288.507 58.9 286.467 60.26C284.467 61.62 282.187 62.3 279.627 62.3C276.107 62.3 273.487 60.7 271.767 57.5C270.087 54.3 269.247 50.16 269.247 45.08C269.247 40.2 269.867 34.64 271.107 28.4C272.387 22.16 274.247 16.8 276.687 12.32C279.167 7.84 282.107 5.6 285.507 5.6C287.427 5.6 288.927 6.5 290.007 8.3C291.127 10.06 291.687 12.6 291.687 15.92C291.687 20.68 290.367 26.2 287.727 32.48C285.087 38.76 281.507 44.98 276.987 51.14C277.267 52.78 277.727 53.96 278.367 54.68C279.007 55.36 279.847 55.7 280.887 55.7C282.527 55.7 283.967 55.24 285.207 54.32C286.447 53.36 288.027 51.74 289.947 49.46C290.427 48.9 290.967 48.62 291.567 48.62ZM284.187 11.54C283.267 11.54 282.227 13.2 281.067 16.52C279.907 19.84 278.887 23.96 278.007 28.88C277.127 33.8 276.647 38.52 276.567 43.04C279.407 38.36 281.667 33.68 283.347 29C285.027 24.28 285.867 19.98 285.867 16.1C285.867 13.06 285.307 11.54 284.187 11.54ZM296.077 30.08C294.397 30.08 293.137 29.7 292.297 28.94C291.457 28.14 291.037 27.04 291.037 25.64C291.037 24.24 291.577 23.08 292.657 22.16C293.777 21.2 295.157 20.72 296.797 20.72C298.277 20.72 299.477 21.08 300.397 21.8C301.317 22.52 301.777 23.54 301.777 24.86C301.777 26.46 301.257 27.74 300.217 28.7C299.177 29.62 297.797 30.08 296.077 30.08ZM290.317 62.3C289.037 62.3 288.157 62.04 287.677 61.52C287.197 61 286.957 60.18 286.957 59.06C286.957 58.74 286.997 58.18 287.077 57.38C287.717 50.06 288.777 43.4 290.257 37.4C290.577 36.16 291.097 35.3 291.817 34.82C292.577 34.3 293.777 34.04 295.417 34.04C297.137 34.04 297.997 34.74 297.997 36.14C297.997 36.34 297.957 36.72 297.877 37.28C296.077 45.84 294.997 53.02 294.637 58.82C294.557 60.1 294.177 61 293.497 61.52C292.817 62.04 291.757 62.3 290.317 62.3ZM320.037 62.3C318.517 62.3 317.437 61.5 316.797 59.9C316.197 58.3 315.897 55.74 315.897 52.22C315.897 47.02 316.637 42.08 318.117 37.4C318.477 36.24 319.057 35.4 319.857 34.88C320.697 34.32 321.857 34.04 323.337 34.04C324.137 34.04 324.697 34.14 325.017 34.34C325.337 34.54 325.497 34.92 325.497 35.48C325.497 36.12 325.197 37.56 324.597 39.8C324.197 41.4 323.877 42.8 323.637 44C323.397 45.16 323.197 46.62 323.037 48.38C324.117 45.26 325.397 42.62 326.877 40.46C328.397 38.3 329.937 36.7 331.497 35.66C333.097 34.58 334.597 34.04 335.997 34.04C337.397 34.04 338.377 34.36 338.937 35C339.537 35.64 339.837 36.62 339.837 37.94C339.837 39.22 339.457 41.54 338.697 44.9C338.377 46.34 338.157 47.42 338.037 48.14C340.037 43.22 342.257 39.64 344.697 37.4C347.137 35.16 349.417 34.04 351.537 34.04C354.137 34.04 355.437 35.34 355.437 37.94C355.437 39.5 354.997 42.32 354.117 46.4C353.357 49.88 352.977 52.18 352.977 53.3C352.977 54.9 353.557 55.7 354.717 55.7C355.517 55.7 356.457 55.22 357.537 54.26C358.657 53.26 360.137 51.66 361.977 49.46C362.457 48.9 362.997 48.62 363.597 48.62C364.117 48.62 364.517 48.86 364.797 49.34C365.117 49.82 365.277 50.48 365.277 51.32C365.277 52.92 364.897 54.16 364.137 55.04C362.417 57.16 360.557 58.9 358.557 60.26C356.597 61.62 354.357 62.3 351.837 62.3C349.797 62.3 348.257 61.72 347.217 60.56C346.177 59.36 345.657 57.64 345.657 55.4C345.657 54.28 345.937 52.28 346.497 49.4C347.017 46.88 347.277 45.14 347.277 44.18C347.277 43.54 347.057 43.22 346.617 43.22C346.097 43.22 345.357 43.9 344.397 45.26C343.437 46.58 342.477 48.34 341.517 50.54C340.557 52.74 339.777 55.06 339.177 57.5C338.737 59.42 338.217 60.7 337.617 61.34C337.057 61.98 336.137 62.3 334.857 62.3C333.537 62.3 332.537 61.68 331.857 60.44C331.217 59.16 330.897 57.62 330.897 55.82C330.897 54.3 331.097 52.1 331.497 49.22C331.817 46.66 331.977 44.98 331.977 44.18C331.977 43.54 331.757 43.22 331.317 43.22C330.717 43.22 329.957 43.94 329.037 45.38C328.117 46.82 327.217 48.66 326.337 50.9C325.497 53.14 324.817 55.34 324.297 57.5C323.857 59.38 323.337 60.66 322.737 61.34C322.177 61.98 321.277 62.3 320.037 62.3ZM367.205 62.3C364.725 62.3 362.745 61.4 361.265 59.6C359.785 57.8 359.045 55.44 359.045 52.52C359.045 49.32 359.785 46.3 361.265 43.46C362.745 40.58 364.705 38.28 367.145 36.56C369.625 34.8 372.245 33.92 375.005 33.92C375.885 33.92 376.465 34.1 376.745 34.46C377.065 34.78 377.325 35.38 377.525 36.26C378.365 36.1 379.245 36.02 380.165 36.02C382.125 36.02 383.105 36.72 383.105 38.12C383.105 38.96 382.805 40.96 382.205 44.12C381.285 48.72 380.825 51.92 380.825 53.72C380.825 54.32 380.965 54.8 381.245 55.16C381.565 55.52 381.965 55.7 382.445 55.7C383.205 55.7 384.125 55.22 385.205 54.26C386.285 53.26 387.745 51.66 389.585 49.46C390.065 48.9 390.605 48.62 391.205 48.62C391.725 48.62 392.125 48.86 392.405 49.34C392.725 49.82 392.885 50.48 392.885 51.32C392.885 52.92 392.505 54.16 391.745 55.04C390.105 57.08 388.365 58.8 386.525 60.2C384.685 61.6 382.905 62.3 381.185 62.3C379.865 62.3 378.645 61.86 377.525 60.98C376.445 60.06 375.625 58.82 375.065 57.26C372.985 60.62 370.365 62.3 367.205 62.3ZM369.365 56.24C370.245 56.24 371.085 55.72 371.885 54.68C372.685 53.64 373.265 52.26 373.625 50.54L375.845 39.5C374.165 39.54 372.605 40.18 371.165 41.42C369.765 42.62 368.645 44.22 367.805 46.22C366.965 48.22 366.545 50.34 366.545 52.58C366.545 53.82 366.785 54.74 367.265 55.34C367.785 55.94 368.485 56.24 369.365 56.24ZM391.669 62.3C390.149 62.3 389.069 61.5 388.429 59.9C387.829 58.3 387.529 55.74 387.529 52.22C387.529 47.02 388.269 42.08 389.749 37.4C390.109 36.24 390.689 35.4 391.489 34.88C392.329 34.32 393.489 34.04 394.969 34.04C395.769 34.04 396.329 34.14 396.649 34.34C396.969 34.54 397.129 34.92 397.129 35.48C397.129 36.12 396.829 37.56 396.229 39.8C395.829 41.4 395.509 42.8 395.269 44C395.029 45.2 394.829 46.68 394.669 48.44C395.989 45 397.469 42.2 399.109 40.04C400.749 37.88 402.349 36.34 403.909 35.42C405.509 34.5 406.969 34.04 408.289 34.04C410.889 34.04 412.189 35.34 412.189 37.94C412.189 38.46 412.009 39.72 411.649 41.72C411.329 43.32 411.169 44.32 411.169 44.72C411.169 46.12 411.669 46.82 412.669 46.82C413.789 46.82 415.229 45.94 416.989 44.18C417.509 43.66 418.049 43.4 418.609 43.4C419.129 43.4 419.529 43.64 419.809 44.12C420.129 44.56 420.289 45.16 420.289 45.92C420.289 47.4 419.889 48.56 419.089 49.4C417.969 50.56 416.649 51.56 415.129 52.4C413.649 53.2 412.069 53.6 410.389 53.6C408.269 53.6 406.649 53.06 405.529 51.98C404.449 50.9 403.909 49.44 403.909 47.6C403.909 47 403.969 46.4 404.089 45.8C404.169 45 404.209 44.46 404.209 44.18C404.209 43.54 403.989 43.22 403.549 43.22C402.949 43.22 402.149 43.9 401.149 45.26C400.189 46.58 399.229 48.34 398.269 50.54C397.309 52.74 396.529 55.06 395.929 57.5C395.489 59.38 394.969 60.66 394.369 61.34C393.809 61.98 392.909 62.3 391.669 62.3ZM448.794 48.62C449.314 48.62 449.714 48.86 449.994 49.34C450.314 49.82 450.474 50.48 450.474 51.32C450.474 52.92 450.094 54.16 449.334 55.04C447.534 57.24 445.714 59 443.874 60.32C442.034 61.64 439.854 62.3 437.334 62.3C434.254 62.3 431.774 61.42 429.894 59.66C428.014 57.9 427.074 55.56 427.074 52.64C427.074 51.08 427.874 49.96 429.474 49.28C431.234 48.52 432.494 47.72 433.254 46.88C434.014 46 434.394 44.94 434.394 43.7C434.394 42.98 434.234 42.44 433.914 42.08C433.634 41.72 433.274 41.54 432.834 41.54C431.754 41.54 430.554 42.32 429.234 43.88C427.954 45.44 426.754 47.46 425.634 49.94C424.514 52.38 423.634 54.9 422.994 57.5C422.554 59.38 422.034 60.66 421.434 61.34C420.874 61.98 419.974 62.3 418.734 62.3C417.494 62.3 416.574 61.86 415.974 60.98C415.414 60.06 415.034 58.66 414.834 56.78C414.634 54.9 414.534 52.14 414.534 48.5C414.534 42.34 415.154 35.92 416.394 29.24C417.674 22.56 419.534 16.96 421.974 12.44C424.454 7.88 427.414 5.6 430.854 5.6C432.694 5.6 434.174 6.4 435.294 8C436.454 9.56 437.034 11.6 437.034 14.12C437.034 18.16 435.854 22.36 433.494 26.72C431.134 31.04 427.294 36.1 421.974 41.9C421.854 43.98 421.794 46.12 421.794 48.32C423.714 43.32 425.914 39.7 428.394 37.46C430.874 35.18 433.194 34.04 435.354 34.04C437.354 34.04 438.954 34.72 440.154 36.08C441.394 37.44 442.014 39.12 442.014 41.12C442.014 43.32 441.454 45.34 440.334 47.18C439.214 49.02 437.294 50.66 434.574 52.1C434.734 53.18 435.214 54.06 436.014 54.74C436.854 55.38 437.854 55.7 439.014 55.7C440.254 55.7 441.454 55.22 442.614 54.26C443.774 53.3 445.294 51.7 447.174 49.46C447.654 48.9 448.194 48.62 448.794 48.62ZM429.594 11.54C428.874 11.54 428.074 12.58 427.194 14.66C426.314 16.7 425.454 19.48 424.614 23C423.814 26.48 423.154 30.28 422.634 34.4C425.114 31.48 427.154 28.3 428.754 24.86C430.394 21.42 431.214 18.3 431.214 15.5C431.214 14.22 431.074 13.24 430.794 12.56C430.514 11.88 430.114 11.54 429.594 11.54ZM471.797 48.62C472.317 48.62 472.717 48.86 472.997 49.34C473.317 49.82 473.477 50.48 473.477 51.32C473.477 52.92 473.097 54.16 472.337 55.04C470.857 56.84 468.757 58.5 466.037 60.02C463.357 61.54 460.477 62.3 457.397 62.3C453.197 62.3 449.937 61.16 447.617 58.88C445.297 56.6 444.137 53.48 444.137 49.52C444.137 46.76 444.717 44.2 445.877 41.84C447.037 39.44 448.637 37.54 450.677 36.14C452.757 34.74 455.097 34.04 457.697 34.04C460.017 34.04 461.877 34.74 463.277 36.14C464.677 37.5 465.377 39.36 465.377 41.72C465.377 44.48 464.377 46.86 462.377 48.86C460.417 50.82 457.077 52.38 452.357 53.54C453.357 55.38 455.257 56.3 458.057 56.3C459.857 56.3 461.897 55.68 464.177 54.44C466.497 53.16 468.497 51.5 470.177 49.46C470.657 48.9 471.197 48.62 471.797 48.62ZM456.677 39.92C455.197 39.92 453.937 40.78 452.897 42.5C451.897 44.22 451.397 46.3 451.397 48.74V48.86C453.757 48.3 455.617 47.46 456.977 46.34C458.337 45.22 459.017 43.92 459.017 42.44C459.017 41.68 458.797 41.08 458.357 40.64C457.957 40.16 457.397 39.92 456.677 39.92ZM477.892 39.74C477.812 41.74 477.772 43.3 477.772 44.42C477.772 47.3 477.912 49.56 478.192 51.2C478.512 52.8 479.012 53.96 479.692 54.68C480.412 55.36 481.392 55.7 482.632 55.7C483.272 55.7 484.032 55.5 484.912 55.1C485.792 54.7 486.592 54.18 487.312 53.54C487.752 53.14 488.192 52.94 488.632 52.94C489.112 52.94 489.492 53.22 489.772 53.78C490.092 54.3 490.252 54.94 490.252 55.7C490.252 56.46 490.092 57.2 489.772 57.92C489.492 58.64 489.052 59.24 488.452 59.72C486.372 61.44 484.012 62.3 481.372 62.3C477.572 62.3 474.792 60.72 473.032 57.56C471.272 54.36 470.392 50.2 470.392 45.08C470.392 43.32 470.452 41.54 470.572 39.74H468.232C467.032 39.74 466.212 39.52 465.772 39.08C465.372 38.64 465.172 37.94 465.172 36.98C465.172 34.74 466.072 33.62 467.872 33.62H471.292C471.972 29.22 473.012 25.2 474.412 21.56C475.812 17.92 477.492 15.02 479.452 12.86C481.452 10.7 483.592 9.62 485.872 9.62C487.552 9.62 488.872 10.36 489.832 11.84C490.792 13.32 491.272 15.18 491.272 17.42C491.272 23.62 488.672 29.02 483.472 33.62H490.192C490.832 33.62 491.292 33.76 491.572 34.04C491.852 34.32 491.992 34.84 491.992 35.6C491.992 38.36 489.732 39.74 485.212 39.74H477.892ZM484.252 15.38C483.652 15.38 482.972 16.14 482.212 17.66C481.492 19.14 480.792 21.22 480.112 23.9C479.472 26.54 478.932 29.48 478.492 32.72C480.852 30.68 482.612 28.4 483.772 25.88C484.972 23.32 485.572 21 485.572 18.92C485.572 16.56 485.132 15.38 484.252 15.38Z" fill="white"/>
</g>
<defs>
<filter id="filter0_d_18_256" x="74.04" y="5.6001" width="426.952" height="72.8198" filterUnits="userSpaceOnUse" color-interpolation-filters="sRGB">
<feFlood flood-opacity="0" result="BackgroundImageFix"/>
<feColorMatrix in="SourceAlpha" type="matrix" values="0 0 0 0 0 0 0 0 0 0 0 0 0 0 0 0 0 0 127 0" result="hardAlpha"/>
<feOffset dy="4"/>
<feGaussianBlur stdDeviation="2"/>
<feComposite in2="hardAlpha" operator="out"/>
<feColorMatrix type="matrix" values="0 0 0 0 0.670588 0 0 0 0 0.137255 0 0 0 0 0.0431373 0 0 0 0.25 0"/>
<feBlend mode="normal" in2="BackgroundImageFix" result="effect1_dropShadow_18_256"/>
<feBlend mode="normal" in="SourceGraphic" in2="effect1_dropShadow_18_256" result="shape"/>
</filter>
</defs>
</svg>
